<?xml version="1.0" encoding="UTF-8" standalone="no"?>
<svg xmlns="http://www.w3.org/2000/svg" viewBox="0 0 512 512">
  <path d="
    M 0 0 H 512 V 512 H 0 Z
    M 0 235 L 0 511 L 276 511 L 154 408 L 72 323 Z M 52 236 L 51 241 L 84 281 L 142 264 L 142 268 L 107 303 L 107 308 L 145 348 L 176 334 L 177 339 L 163 360 L 163 366 L 207 407 L 211 407 L 246 372 L 251 373 L 233 430 L 274 460 L 310 304 L 206 200 Z M 511 42 L 341 213 L 341 218 L 372 250 L 375 270 L 349 303 L 304 495 L 295 511 L 511 511 Z M 494 0 L 511 17 L 511 0 Z M 0 217 L 16 207 L 211 161 L 241 136 L 261 139 L 293 170 L 298 170 L 469 0 L 0 0 Z
  " fill="#000000" fill-rule="evenodd"/>
</svg>
